<mxfile host="app.diagrams.net" modified="2023-05-08T03:10:36.102Z" agent="Mozilla/5.0 (Windows NT 10.0; Win64; x64) AppleWebKit/537.36 (KHTML, like Gecko) Chrome/112.0.0.0 Safari/537.36" etag="DsjWwM28l67pHVYS8Hin" version="21.2.9" type="github">
  <diagram name="Página-1" id="bSJGP8Rl3pwdWKhk3Nbw">
    <mxGraphModel dx="880" dy="484" grid="1" gridSize="10" guides="1" tooltips="1" connect="1" arrows="1" fold="1" page="1" pageScale="1" pageWidth="827" pageHeight="1169" math="0" shadow="0">
      <root>
        <mxCell id="0" />
        <mxCell id="1" parent="0" />
        <mxCell id="TybLUOuc99CVGpNBgaMz-9" value="" style="rounded=0;whiteSpace=wrap;html=1;fillColor=#f5f5f5;gradientColor=#b3b3b3;strokeColor=#666666;" parent="1" vertex="1">
          <mxGeometry x="13" y="40" width="800" height="860" as="geometry" />
        </mxCell>
        <mxCell id="TybLUOuc99CVGpNBgaMz-1" value="Demo" style="html=1;shadow=0;dashed=0;fontSize=16;align=left;spacing=15;fillColor=none;strokeColor=none;" parent="1" vertex="1">
          <mxGeometry x="250" y="64" width="563" height="60" as="geometry" />
        </mxCell>
        <mxCell id="TybLUOuc99CVGpNBgaMz-2" value="Precios" style="fillColor=none;strokeColor=none;fontSize=14;fontColor=#080808;align=center;" parent="TybLUOuc99CVGpNBgaMz-1" vertex="1">
          <mxGeometry width="70" height="40" relative="1" as="geometry">
            <mxPoint x="70" y="10" as="offset" />
          </mxGeometry>
        </mxCell>
        <mxCell id="TybLUOuc99CVGpNBgaMz-3" value="Características Chatbot " style="fillColor=none;strokeColor=none;fontSize=14;fontColor=#9A9DA0;align=center;" parent="TybLUOuc99CVGpNBgaMz-1" vertex="1">
          <mxGeometry width="160" height="40" relative="1" as="geometry">
            <mxPoint x="157" y="10" as="offset" />
          </mxGeometry>
        </mxCell>
        <mxCell id="TybLUOuc99CVGpNBgaMz-6" value="Login" style="html=1;shadow=0;dashed=0;shape=mxgraph.bootstrap.rrect;rSize=5;fontSize=14;fontColor=#1CA5B8;strokeColor=#1CA5B8;fillColor=none;" parent="TybLUOuc99CVGpNBgaMz-1" vertex="1">
          <mxGeometry x="1" width="91" height="40" relative="1" as="geometry">
            <mxPoint x="-101" y="10" as="offset" />
          </mxGeometry>
        </mxCell>
        <mxCell id="TybLUOuc99CVGpNBgaMz-16" value="Power by PortalUp&lt;br&gt;" style="text;html=1;align=center;verticalAlign=middle;resizable=0;points=[];autosize=1;strokeColor=none;fillColor=none;" parent="1" vertex="1">
          <mxGeometry x="340" y="860" width="120" height="30" as="geometry" />
        </mxCell>
        <mxCell id="TybLUOuc99CVGpNBgaMz-17" value="ortalUp" style="text;html=1;align=center;verticalAlign=middle;resizable=0;points=[];autosize=1;strokeColor=none;fillColor=none;fontSize=16;" parent="1" vertex="1">
          <mxGeometry x="33" y="79" width="80" height="30" as="geometry" />
        </mxCell>
        <mxCell id="kCEi4esk9JjT-v6ZgHjA-2" value="" style="image;image=img/lib/atlassian/Hipchat_Logo.svg;html=1;direction=east;flipH=0;flipV=0;" parent="1" vertex="1">
          <mxGeometry x="760" y="850" width="40" height="40" as="geometry" />
        </mxCell>
        <mxCell id="qUeKAZHSjAzKXp8nuljT-1" value="" style="dashed=0;outlineConnect=0;html=1;align=center;labelPosition=center;verticalLabelPosition=bottom;verticalAlign=top;shape=mxgraph.weblogos.paypal" parent="1" vertex="1">
          <mxGeometry x="20" y="45" width="51.2" height="58" as="geometry" />
        </mxCell>
        <mxCell id="WxPlHqK4lzl6niAkEpGa-1" value="Nombre del Chatbot" style="fillColor=none;strokeColor=none;align=left;fontSize=12;" parent="1" vertex="1">
          <mxGeometry x="120" y="150" width="260" height="40" as="geometry" />
        </mxCell>
        <mxCell id="WxPlHqK4lzl6niAkEpGa-3" value="Base del Prompt" style="fillColor=none;strokeColor=none;align=left;fontSize=12;" parent="1" vertex="1">
          <mxGeometry width="260" height="40" relative="1" as="geometry">
            <mxPoint x="120" y="210" as="offset" />
          </mxGeometry>
        </mxCell>
        <mxCell id="WxPlHqK4lzl6niAkEpGa-4" value="" style="html=1;shadow=0;dashed=0;shape=mxgraph.bootstrap.rrect;rSize=5;align=left;spacing=15;fontSize=14;" parent="1" vertex="1">
          <mxGeometry width="560" height="30" relative="1" as="geometry">
            <mxPoint x="120" y="180" as="offset" />
          </mxGeometry>
        </mxCell>
        <mxCell id="WxPlHqK4lzl6niAkEpGa-17" value="" style="html=1;shadow=0;dashed=0;shape=mxgraph.bootstrap.rrect;rSize=5;align=left;spacing=15;fontSize=14;" parent="1" vertex="1">
          <mxGeometry x="120" y="240" width="560" height="70" as="geometry" />
        </mxCell>
        <mxCell id="WxPlHqK4lzl6niAkEpGa-18" value="Interfaz del Chatbot" style="fillColor=none;strokeColor=none;align=left;fontSize=14;fontStyle=1" parent="1" vertex="1">
          <mxGeometry x="120" y="320" width="120" height="40" as="geometry" />
        </mxCell>
        <mxCell id="WxPlHqK4lzl6niAkEpGa-19" value="Mensaje de Bienvenida" style="fillColor=none;strokeColor=none;align=left;fontSize=12;" parent="1" vertex="1">
          <mxGeometry x="120" y="350" width="260" height="40" as="geometry" />
        </mxCell>
        <mxCell id="WxPlHqK4lzl6niAkEpGa-20" value="Hola soy Fabi! en que te puedo ayuda?" style="html=1;shadow=0;dashed=0;shape=mxgraph.bootstrap.rrect;rSize=5;align=left;spacing=15;fontSize=9;" parent="1" vertex="1">
          <mxGeometry x="120" y="380" width="230" height="50" as="geometry" />
        </mxCell>
        <mxCell id="WxPlHqK4lzl6niAkEpGa-21" value="Preguntas sugeridas" style="fillColor=none;strokeColor=none;align=left;fontSize=12;" parent="1" vertex="1">
          <mxGeometry x="120" y="420" width="260" height="40" as="geometry" />
        </mxCell>
        <mxCell id="WxPlHqK4lzl6niAkEpGa-22" value="" style="html=1;shadow=0;dashed=0;shape=mxgraph.bootstrap.rrect;rSize=5;align=left;spacing=15;fontSize=14;" parent="1" vertex="1">
          <mxGeometry x="120" y="450" width="230" height="50" as="geometry" />
        </mxCell>
        <mxCell id="WxPlHqK4lzl6niAkEpGa-26" value="Color Fondo" style="fillColor=none;strokeColor=none;align=left;fontSize=12;" parent="1" vertex="1">
          <mxGeometry x="120" y="490" width="260" height="40" as="geometry" />
        </mxCell>
        <mxCell id="WxPlHqK4lzl6niAkEpGa-27" value="Choose file" style="html=1;shadow=0;dashed=0;shape=mxgraph.bootstrap.rrect;rSize=5;strokeColor=#CED4DA;html=1;whiteSpace=wrap;fillColor=#FFFFFF;fontColor=#7D868C;align=left;spacingLeft=0;spacing=15;fontSize=14;" parent="1" vertex="1">
          <mxGeometry x="120" y="585" width="230" height="30" as="geometry" />
        </mxCell>
        <mxCell id="WxPlHqK4lzl6niAkEpGa-28" value="Browse" style="html=1;shadow=0;dashed=0;shape=mxgraph.bootstrap.rightButton;strokeColor=inherit;gradientColor=inherit;fontColor=inherit;fillColor=#E9ECEF;rSize=5;perimeter=none;whiteSpace=wrap;resizeHeight=1;fontSize=14;" parent="WxPlHqK4lzl6niAkEpGa-27" vertex="1">
          <mxGeometry x="1" width="70" height="30" relative="1" as="geometry">
            <mxPoint x="-70" as="offset" />
          </mxGeometry>
        </mxCell>
        <mxCell id="WxPlHqK4lzl6niAkEpGa-29" value="Imagen perfil Chatbot" style="fillColor=none;strokeColor=none;align=left;fontSize=12;" parent="1" vertex="1">
          <mxGeometry x="120" y="555" width="260" height="40" as="geometry" />
        </mxCell>
        <mxCell id="WxPlHqK4lzl6niAkEpGa-30" value="Nombre a mostrar " style="fillColor=none;strokeColor=none;align=left;fontSize=12;" parent="1" vertex="1">
          <mxGeometry x="120" y="610" width="260" height="40" as="geometry" />
        </mxCell>
        <mxCell id="WxPlHqK4lzl6niAkEpGa-31" value="Fabi Asistente AI de PotalUp" style="html=1;shadow=0;dashed=0;shape=mxgraph.bootstrap.rrect;rSize=5;align=left;spacing=15;fontSize=11;" parent="1" vertex="1">
          <mxGeometry x="120" y="640" width="230" height="30" as="geometry" />
        </mxCell>
        <mxCell id="WxPlHqK4lzl6niAkEpGa-36" value="Color Burbuja" style="fillColor=none;strokeColor=none;align=left;fontSize=12;" parent="1" vertex="1">
          <mxGeometry x="120" y="660" width="260" height="40" as="geometry" />
        </mxCell>
        <mxCell id="WxPlHqK4lzl6niAkEpGa-41" value="" style="html=1;shadow=0;dashed=0;shape=mxgraph.bootstrap.rrect;rSize=5;strokeColor=#999999;strokeWidth=1;fillColor=#FFFFFF;fontColor=#6C767D;whiteSpace=wrap;align=left;verticalAlign=middle;spacingLeft=10;fontSize=14;spacing=10;" parent="1" vertex="1">
          <mxGeometry x="380" y="380" width="300" height="350" as="geometry" />
        </mxCell>
        <mxCell id="WxPlHqK4lzl6niAkEpGa-45" value="" style="line;strokeWidth=4;html=1;perimeter=backbonePerimeter;points=[];outlineConnect=0;" parent="1" vertex="1">
          <mxGeometry x="390" y="410" width="270" height="20" as="geometry" />
        </mxCell>
        <mxCell id="WxPlHqK4lzl6niAkEpGa-46" value="Seleccione color" style="html=1;shadow=0;dashed=0;shape=mxgraph.bootstrap.rrect;rSize=5;strokeColor=#505050;strokeWidth=1;fillColor=#ffffff;fontColor=#777777;whiteSpace=wrap;align=left;verticalAlign=middle;fontStyle=0;fontSize=14;spacingRight=0;spacing=17;" parent="1" vertex="1">
          <mxGeometry x="120" y="690" width="230" height="40" as="geometry" />
        </mxCell>
        <mxCell id="WxPlHqK4lzl6niAkEpGa-47" value="" style="shape=triangle;direction=south;fillColor=#495057;strokeColor=none;perimeter=none;" parent="WxPlHqK4lzl6niAkEpGa-46" vertex="1">
          <mxGeometry x="1" y="0.5" width="10" height="5" relative="1" as="geometry">
            <mxPoint x="-17" y="-2.5" as="offset" />
          </mxGeometry>
        </mxCell>
        <mxCell id="WxPlHqK4lzl6niAkEpGa-48" value="Seleccione color" style="html=1;shadow=0;dashed=0;shape=mxgraph.bootstrap.rrect;rSize=5;strokeColor=#505050;strokeWidth=1;fillColor=#ffffff;fontColor=#777777;whiteSpace=wrap;align=left;verticalAlign=middle;fontStyle=0;fontSize=14;spacingRight=0;spacing=17;" parent="1" vertex="1">
          <mxGeometry x="120" y="520" width="230" height="40" as="geometry" />
        </mxCell>
        <mxCell id="WxPlHqK4lzl6niAkEpGa-49" value="" style="shape=triangle;direction=south;fillColor=#495057;strokeColor=none;perimeter=none;" parent="WxPlHqK4lzl6niAkEpGa-48" vertex="1">
          <mxGeometry x="1" y="0.5" width="10" height="5" relative="1" as="geometry">
            <mxPoint x="-17" y="-2.5" as="offset" />
          </mxGeometry>
        </mxCell>
        <mxCell id="WxPlHqK4lzl6niAkEpGa-50" value="" style="html=1;shadow=0;dashed=0;shape=mxgraph.bootstrap.rrect;rSize=5;strokeColor=#CED4DA;html=1;whiteSpace=wrap;fillColor=#FFFFFF;fontColor=#7D868C;align=left;spacingLeft=0;spacing=15;fontSize=14;" parent="1" vertex="1">
          <mxGeometry x="380" y="695" width="300" height="30" as="geometry" />
        </mxCell>
        <mxCell id="WxPlHqK4lzl6niAkEpGa-51" value="&amp;gt;" style="html=1;shadow=0;dashed=0;shape=mxgraph.bootstrap.rightButton;strokeColor=inherit;gradientColor=inherit;fontColor=inherit;fillColor=#E9ECEF;rSize=5;perimeter=none;whiteSpace=wrap;resizeHeight=1;fontSize=14;" parent="WxPlHqK4lzl6niAkEpGa-50" vertex="1">
          <mxGeometry x="1" width="41" height="30" relative="1" as="geometry">
            <mxPoint x="-41" as="offset" />
          </mxGeometry>
        </mxCell>
        <mxCell id="WxPlHqK4lzl6niAkEpGa-52" value="Fabi Asistente AI de PotalUp" style="text;html=1;align=center;verticalAlign=middle;resizable=0;points=[];autosize=1;strokeColor=none;fillColor=none;fontStyle=1" parent="1" vertex="1">
          <mxGeometry x="375" y="390" width="190" height="30" as="geometry" />
        </mxCell>
        <mxCell id="WxPlHqK4lzl6niAkEpGa-53" value="Hola soy Fabi! en que te puedo ayuda?" style="text;html=1;align=center;verticalAlign=middle;resizable=0;points=[];autosize=1;strokeColor=none;fillColor=none;" parent="1" vertex="1">
          <mxGeometry x="380" y="440" width="230" height="30" as="geometry" />
        </mxCell>
        <mxCell id="WxPlHqK4lzl6niAkEpGa-54" value="" style="image;image=img/lib/atlassian/Hipchat_Logo.svg;html=1;direction=east;flipH=0;flipV=0;" parent="1" vertex="1">
          <mxGeometry x="640" y="740" width="40" height="40" as="geometry" />
        </mxCell>
        <mxCell id="HXFUV2P10HTSHtJlZwqs-1" value="Guarda Cambios" style="html=1;shadow=0;dashed=0;shape=mxgraph.bootstrap.rrect;rSize=5;strokeColor=none;strokeWidth=1;fillColor=#0085FC;fontColor=#FFFFFF;whiteSpace=wrap;align=center;verticalAlign=middle;spacingLeft=0;fontStyle=0;fontSize=16;spacing=5;" vertex="1" parent="1">
          <mxGeometry x="344" y="790" width="140" height="40" as="geometry" />
        </mxCell>
      </root>
    </mxGraphModel>
  </diagram>
</mxfile>
